<svg width="24" height="24" viewBox="0 0 24 24" fill="none" xmlns="http://www.w3.org/2000/svg">
<path d="M12.011 16.5C12.011 14.615 12.011 13.672 11.425 13.086C10.838 12.5 9.895 12.5 8.007 12.5H6.004C4.117 12.5 3.173 12.5 2.586 13.086C2 13.672 2 14.615 2 16.501M10.509 12.5V10.5C10.509 9.096 10.509 8.394 10.171 7.89C10.025 7.67153 9.83747 7.48396 9.619 7.338C9.114 7 8.411 7 7.005 7C5.599 7 4.895 7 4.391 7.338C4.17226 7.48356 3.98435 7.67079 3.838 7.889C3.501 8.394 3.501 9.096 3.501 10.5V12.5" stroke="#535359" stroke-linecap="round" stroke-linejoin="round"/>
<path d="M16.62 12.393C16.62 12.393 16.997 12.508 17.522 13.276C17.522 13.276 18.29 11.618 19.356 11.042M21.976 11.983C21.976 14.183 20.19 15.967 17.988 15.967C17.4646 15.9673 16.9462 15.8644 16.4625 15.6644C15.9788 15.4643 15.5392 15.1709 15.1689 14.8009C14.7986 14.431 14.5047 13.9917 14.3042 13.5082C14.1036 13.0247 14.0003 12.5065 14 11.983C14 9.783 15.786 8 17.988 8C18.5114 7.99961 19.0298 8.10232 19.5135 8.30229C19.9972 8.50225 20.4367 8.79554 20.8071 9.16541C21.1774 9.53528 21.4712 9.97448 21.6718 10.4579C21.8724 10.9414 21.9757 11.4596 21.976 11.983Z" stroke="#535359" stroke-linecap="round" stroke-linejoin="round"/>
</svg>
