<svg width="342" height="342" viewBox="0 0 342 342" fill="none" xmlns="http://www.w3.org/2000/svg">
<circle opacity="0.3" cx="171" cy="171" r="155.5" fill="white" stroke="#D9D9D9"/>
<circle opacity="0.3" cx="170.5" cy="170.5" r="129" fill="white" stroke="#D9D9D9"/>
<circle opacity="0.5" cx="170.5" cy="170.5" r="95" fill="white" stroke="#D9D9D9"/>
<circle cx="171" cy="171" r="59.5" fill="white" stroke="#D9D9D9"/>
<g clip-path="url(#clip0_31959_1080)">
<g filter="url(#filter0_d_31959_1080)">
<path d="M171 141.438C154.673 141.438 141.438 154.673 141.438 171C141.438 187.327 154.673 200.562 171 200.562C187.327 200.562 200.562 187.327 200.562 171C200.562 154.673 187.327 141.438 171 141.438Z" fill="white"/>
</g>
<path d="M161 170.588L159.901 171.66C156.931 174.556 156.904 179.323 159.842 182.252V182.252C162.751 185.152 167.46 185.145 170.36 182.236L182.229 170.332C185.122 167.431 185.115 162.733 182.213 159.84L181.643 159.271C179.015 156.651 174.749 156.698 172.179 159.375V159.375L169.84 161.813" stroke="#535359" stroke-width="3" stroke-linecap="round"/>
<path d="M160 160.484L183.018 183.017" stroke="#535359" stroke-width="3" stroke-linecap="round"/>
</g>
<defs>
<filter id="filter0_d_31959_1080" x="135.438" y="135.438" width="71.125" height="71.125" filterUnits="userSpaceOnUse" color-interpolation-filters="sRGB">
<feFlood flood-opacity="0" result="BackgroundImageFix"/>
<feColorMatrix in="SourceAlpha" type="matrix" values="0 0 0 0 0 0 0 0 0 0 0 0 0 0 0 0 0 0 127 0" result="hardAlpha"/>
<feOffset/>
<feGaussianBlur stdDeviation="3"/>
<feComposite in2="hardAlpha" operator="out"/>
<feColorMatrix type="matrix" values="0 0 0 0 0 0 0 0 0 0 0 0 0 0 0 0 0 0 0.25 0"/>
<feBlend mode="normal" in2="BackgroundImageFix" result="effect1_dropShadow_31959_1080"/>
<feBlend mode="normal" in="SourceGraphic" in2="effect1_dropShadow_31959_1080" result="shape"/>
</filter>
<clipPath id="clip0_31959_1080">
<rect width="66" height="66" fill="white" transform="translate(138 138)"/>
</clipPath>
</defs>
</svg>
