<svg width="20" height="20" viewBox="0 0 20 20" fill="none" xmlns="http://www.w3.org/2000/svg">
<g clip-path="url(#clip0_2500_4020)">
<path d="M10.0013 1.03906C5.05375 1.03906 1.04297 5.04985 1.04297 9.99739C1.04297 14.945 5.05375 18.9557 10.0013 18.9557C14.9489 18.9557 18.9596 14.945 18.9596 9.99739C18.9596 5.04985 14.9489 1.03906 10.0013 1.03906Z" fill="white" stroke="#E0E0E0" stroke-width="1.5"/>
<path fill-rule="evenodd" clip-rule="evenodd" d="M14.0189 7.65075C14.2142 7.85176 14.2142 8.17765 14.0189 8.37866L9.35224 13.1826C9.2585 13.2791 9.1313 13.3333 8.9987 13.3333C8.8661 13.3333 8.7389 13.2791 8.64515 13.1826L5.97848 10.4375C5.78322 10.2365 5.78322 9.91061 5.97848 9.7096C6.17374 9.50859 6.49032 9.50859 6.68558 9.7096L8.9987 12.0907L13.3118 7.65075C13.5071 7.44975 13.8236 7.44975 14.0189 7.65075Z" fill="#E0E0E0"/>
</g>
<defs>
<clipPath id="clip0_2500_4020">
<rect width="20" height="20" fill="white"/>
</clipPath>
</defs>
</svg>
