<svg width="40" height="40" viewBox="0 0 40 40" fill="none" xmlns="http://www.w3.org/2000/svg">
<path d="M20.0007 2.0835C10.1056 2.0835 2.08398 10.1051 2.08398 20.0002C2.08398 29.8953 10.1056 37.9168 20.0007 37.9168C29.8958 37.9168 37.9173 29.8953 37.9173 20.0002C37.9173 10.1051 29.8958 2.0835 20.0007 2.0835Z" fill="#38A250"/>
<path fill-rule="evenodd" clip-rule="evenodd" d="M30.0512 13.2826C30.5393 13.7708 30.5393 14.5622 30.0512 15.0504L18.3845 26.717C18.1501 26.9515 17.8321 27.0832 17.5006 27.0832C17.1691 27.0832 16.8511 26.9515 16.6168 26.717L9.9501 20.0503C9.46195 19.5622 9.46195 18.7708 9.9501 18.2827C10.4382 17.7945 11.2297 17.7945 11.7179 18.2827L17.5006 24.0653L28.2835 13.2826C28.7717 12.7945 29.563 12.7945 30.0512 13.2826Z" fill="#F9FCFF"/>
</svg>
