<svg width="24" height="24" viewBox="0 0 24 24" fill="none" xmlns="http://www.w3.org/2000/svg">
<path d="M9.77767 11.9997C10.514 11.9997 11.111 11.4027 11.111 10.6663C11.111 9.92996 10.514 9.33301 9.77767 9.33301C9.04129 9.33301 8.44434 9.92996 8.44434 10.6663C8.44434 11.4027 9.04129 11.9997 9.77767 11.9997Z" stroke="#A1A1A1" stroke-width="1.5" stroke-linecap="round" stroke-linejoin="round"/>
<path d="M15.1112 16.444C15.8475 16.444 16.4445 15.8471 16.4445 15.1107C16.4445 14.3743 15.8475 13.7773 15.1112 13.7773C14.3748 13.7773 13.7778 14.3743 13.7778 15.1107C13.7778 15.8471 14.3748 16.444 15.1112 16.444Z" stroke="#A1A1A1" stroke-width="1.5" stroke-linecap="round" stroke-linejoin="round"/>
<path d="M18.6666 9.33366C19.403 9.33366 19.9999 8.73671 19.9999 8.00033C19.9999 7.26395 19.403 6.66699 18.6666 6.66699C17.9302 6.66699 17.3333 7.26395 17.3333 8.00033C17.3333 8.73671 17.9302 9.33366 18.6666 9.33366Z" stroke="#A1A1A1" stroke-width="1.5" stroke-linecap="round" stroke-linejoin="round"/>
<path d="M15.9413 14.0409L18.2222 9.33333M10.7404 11.616L13.9582 14.0409M4.88889 18.2222L8.96889 11.8933M20 20H10.2222C7.28889 20 5.82222 20 4.91111 19.0889C4 18.1778 4 16.7111 4 13.7778V4" stroke="#A1A1A1" stroke-width="1.5" stroke-linecap="round" stroke-linejoin="round"/>
</svg>
