<svg width="144" height="119" viewBox="0 0 144 119" fill="none" xmlns="http://www.w3.org/2000/svg">
<circle cx="37" cy="37" r="36" transform="matrix(-1 0 0 1 109.068 22)" fill="#F8C09B" stroke="black" stroke-width="2"/>
<path d="M30.5382 80.8599C38.5731 72.3165 35.603 50.8841 35.603 50.8841C35.603 50.8841 26.8571 52.2242 23.963 59.3453C20.6641 67.4627 23.877 77.8891 17.0009 88.5183C17.0009 88.5183 26.333 85.3313 30.5382 80.8599Z" fill="#252525" stroke="black" stroke-width="2"/>
<path opacity="0.1" d="M29.6903 70.5386C33.6197 66.3605 32.1672 55.879 32.1672 55.879C32.1672 55.879 27.8901 56.5344 26.4747 60.017C24.8614 63.9867 26.4327 69.0857 23.0699 74.2839C23.0699 74.2839 27.6338 72.7254 29.6903 70.5386Z" fill="white"/>
<path opacity="0.3" d="M42.2456 59.9316C41.8165 74.9588 51.9786 88.1006 69.5038 87.7462C55.2305 81.7641 48.0744 72.5425 42.2456 59.9316Z" fill="#E4897B"/>
<path d="M36.1053 54.7303C38.4038 36.8293 53.606 23 72.0173 23C90.8616 23 106.344 37.4874 108.07 56C108.07 56 102.171 56.9543 94.4438 52.9767C88.1669 49.7456 80.4846 40.9934 76.374 40.9301C68.1776 40.8039 78.5224 55.665 67.7693 52.9767C57.0163 50.2884 52.281 40.9301 52.281 40.9301C52.281 40.9301 47.0366 50.2884 43.6763 52.9767C40.7113 55.3488 36.9493 54.8747 36.1053 54.7303Z" fill="#252525"/>
<path d="M36.0699 55.0149C38.2429 36.9761 53.5085 23 72.0173 23C90.8616 23 106.344 37.4874 108.07 56C108.07 56 102.171 56.9543 94.4438 52.9767C88.1669 49.7456 80.4846 40.9934 76.374 40.9301C68.1776 40.8039 78.5224 55.665 67.7693 52.9767C57.0163 50.2884 52.281 40.9301 52.281 40.9301C52.281 40.9301 47.0366 50.2884 43.6763 52.9767C40.316 55.665 35.9321 54.6977 35.9321 54.6977" stroke="black" stroke-width="2"/>
<path opacity="0.1" d="M41.2057 45.1722C43.0218 34.356 55.0339 26 69.5817 26C84.4717 26 96.7052 34.7537 98.0688 45.9394C98.0688 45.9394 93.4076 46.516 87.3021 44.1126C82.3424 42.1603 76.2722 36.8721 73.0242 36.8338C66.5478 36.7575 74.7217 45.737 66.2252 44.1126C57.7286 42.4883 52.5688 36.8338 52.5688 36.8338C52.5688 36.8338 49.8431 42.4883 47.188 44.1126C44.8451 45.5459 41.8726 45.2594 41.2057 45.1722Z" fill="white"/>
<path d="M81.5361 68.4675C81.5361 68.4675 85.0774 63.6699 88.4199 63.3255C92.3178 62.9239 97.0245 68.4675 97.0245 68.4675" stroke="black" stroke-width="2" stroke-linecap="round"/>
<path d="M89.001 86C89.001 86 90.6014 87.8585 92.1121 87.9919C93.8738 88.1475 96.001 86 96.001 86" stroke="black" stroke-width="2" stroke-linecap="round"/>
</svg>
