<svg width="144" height="119" viewBox="0 0 144 119" fill="none" xmlns="http://www.w3.org/2000/svg">
<circle cx="37" cy="37" r="36" transform="matrix(-1 0 0 1 109 22)" fill="#F8C09B" stroke="black" stroke-width="2"/>
<path opacity="0.3" d="M42.1772 59.9316C41.7481 74.9588 51.9103 88.1006 69.4354 87.7462C55.1622 81.7641 48.006 72.5425 42.1772 59.9316Z" fill="#E4897B"/>
<path d="M36.0365 54.7303C38.3349 36.8293 53.5371 23 71.9484 23C90.7928 23 106.275 37.4874 108.001 56C108.001 56 102.102 56.9543 94.3749 52.9767C88.0981 49.7456 80.4157 40.9934 76.3051 40.9301C68.1087 40.8039 78.4535 55.665 67.7005 52.9767C56.9474 50.2884 52.2121 40.9301 52.2121 40.9301C52.2121 40.9301 46.9678 50.2884 43.6075 52.9767C40.6424 55.3488 36.8805 54.8747 36.0365 54.7303Z" fill="#252525"/>
<path d="M36.001 55.0149C38.1741 36.9761 53.4396 23 71.9484 23C90.7928 23 106.275 37.4874 108.001 56C108.001 56 102.102 56.9543 94.3749 52.9767C88.0981 49.7456 80.4157 40.9934 76.3051 40.9301C68.1088 40.8039 78.4535 55.665 67.7005 52.9767C56.9474 50.2884 52.2121 40.9301 52.2121 40.9301C52.2121 40.9301 46.9678 50.2884 43.6075 52.9767C40.2471 55.665 35.8633 54.6977 35.8633 54.6977" stroke="black" stroke-width="2"/>
<path opacity="0.1" d="M41.1368 45.1722C42.953 34.356 54.9651 26 69.5129 26C84.4028 26 96.6364 34.7537 98 45.9394C98 45.9394 93.3387 46.516 87.2332 44.1126C82.2736 42.1603 76.2033 36.8721 72.9553 36.8338C66.4789 36.7575 74.6529 45.737 66.1563 44.1126C57.6598 42.4883 52.5 36.8338 52.5 36.8338C52.5 36.8338 49.7743 42.4883 47.1191 44.1126C44.7763 45.5459 41.8037 45.2594 41.1368 45.1722Z" fill="white"/>
<path d="M81.4668 68.4675C81.4668 68.4675 85.008 63.6699 88.3505 63.3255C92.2485 62.9239 96.9552 68.4675 96.9552 68.4675" stroke="black" stroke-width="2" stroke-linecap="round"/>
<path d="M89 86C89 86 90.6005 87.8585 92.1111 87.9919C93.8728 88.1475 96 86 96 86" stroke="black" stroke-width="2" stroke-linecap="round"/>
</svg>
