<svg width="20" height="20" viewBox="0 0 20 20" fill="none" xmlns="http://www.w3.org/2000/svg">
<path d="M12.0846 7.5013C12.0846 8.05384 11.8651 8.58374 11.4744 8.97444C11.0837 9.36514 10.5538 9.58464 10.0013 9.58464C9.44877 9.58464 8.91886 9.36514 8.52816 8.97444C8.13746 8.58374 7.91797 8.05384 7.91797 7.5013C7.91797 6.94877 8.13746 6.41886 8.52816 6.02816C8.91886 5.63746 9.44877 5.41797 10.0013 5.41797C10.5538 5.41797 11.0837 5.63746 11.4744 6.02816C11.8651 6.41886 12.0846 6.94877 12.0846 7.5013Z" stroke="#A1A1A1" stroke-width="1.5" stroke-linecap="round" stroke-linejoin="round"/>
<path d="M15.0017 16.668C15.0017 17.5888 12.7634 18.3346 10.0017 18.3346C7.24004 18.3346 5.0017 17.5888 5.0017 16.668M11.0492 14.5796C10.7677 14.8504 10.3923 15.0017 10.0017 15.0017C9.6111 15.0017 9.23568 14.8504 8.9542 14.5796C6.38004 12.0855 2.93087 9.29964 4.61254 5.25464C5.52337 3.06714 7.7067 1.66797 10.0017 1.66797C12.2967 1.66797 14.4809 3.06797 15.3909 5.25464C17.0709 9.2938 13.63 12.0938 11.0492 14.5796Z" stroke="#A1A1A1" stroke-width="1.5" stroke-linecap="round" stroke-linejoin="round"/>
</svg>
