<svg width="24" height="24" viewBox="0 0 24 24" fill="none" xmlns="http://www.w3.org/2000/svg">
<path d="M7 8.5L9.942 10.24C11.657 11.254 12.342 11.254 14.058 10.24L17 8.5" stroke="#252525" stroke-width="1.5" stroke-linecap="round" stroke-linejoin="round"/>
<path d="M2.01679 13.4756C2.08179 16.5406 2.11479 18.0736 3.24579 19.2086C4.37679 20.3446 5.95079 20.3836 9.09979 20.4626C11.0398 20.5126 12.9618 20.5126 14.9018 20.4626C18.0508 20.3836 19.6248 20.3446 20.7558 19.2086C21.8868 18.0736 21.9198 16.5406 21.9858 13.4756C22.0058 12.4896 22.0058 11.5096 21.9858 10.5236C21.9198 7.4586 21.8868 5.9256 20.7558 4.7906C19.6248 3.6546 18.0508 3.6156 14.9018 3.5366C12.9681 3.4878 11.0335 3.4878 9.09979 3.5366C5.95079 3.6156 4.37679 3.6546 3.24579 4.7906C2.11479 5.9256 2.08179 7.4586 2.01579 10.5236C1.99474 11.5075 1.99574 12.4917 2.01679 13.4756Z" stroke="#252525" stroke-width="1.5" stroke-linecap="round" stroke-linejoin="round"/>
</svg>
