<svg width="24" height="24" viewBox="0 0 24 24" fill="none" xmlns="http://www.w3.org/2000/svg">
<path d="M22 12C22 17.523 17.523 22 12 22C6.477 22 2 17.523 2 12C2 6.477 6.477 2 12 2C17.523 2 22 6.477 22 12Z" stroke="#252525" stroke-width="1.5" stroke-linecap="round" stroke-linejoin="round"/>
<path d="M5.5 19L6.06 18.02C6.4973 17.2544 7.12926 16.6181 7.8918 16.1756C8.65434 15.733 9.52034 15.4999 10.402 15.5H13.598C14.4797 15.4999 15.3457 15.733 16.1082 16.1756C16.8707 16.6181 17.5027 17.2544 17.94 18.02L18.5 19M14.75 9.5C14.75 10.2293 14.4603 10.9288 13.9445 11.4445C13.4288 11.9603 12.7293 12.25 12 12.25C11.2707 12.25 10.5712 11.9603 10.0555 11.4445C9.53973 10.9288 9.25 10.2293 9.25 9.5C9.25 8.77065 9.53973 8.07118 10.0555 7.55546C10.5712 7.03973 11.2707 6.75 12 6.75C12.7293 6.75 13.4288 7.03973 13.9445 7.55546C14.4603 8.07118 14.75 8.77065 14.75 9.5Z" stroke="#252525" stroke-width="1.5" stroke-linecap="round" stroke-linejoin="round"/>
</svg>
