<svg width="80" height="80" viewBox="0 0 80 80" fill="none" xmlns="http://www.w3.org/2000/svg">
<path d="M18.333 63.3333L20.1997 60.0667C21.6574 57.5148 23.7639 55.3937 26.3057 53.9185C28.8475 52.4433 31.7341 51.6664 34.673 51.6667H45.3263C48.2652 51.6664 51.1519 52.4433 53.6937 53.9185C56.2355 55.3937 58.342 57.5148 59.7997 60.0667L61.6663 63.3333M49.1663 31.6667C49.1663 34.0978 48.2006 36.4294 46.4815 38.1485C44.7624 39.8676 42.4308 40.8333 39.9997 40.8333C37.5685 40.8333 35.2369 39.8676 33.5179 38.1485C31.7988 36.4294 30.833 34.0978 30.833 31.6667C30.833 29.2355 31.7988 26.9039 33.5179 25.1849C35.2369 23.4658 37.5685 22.5 39.9997 22.5C42.4308 22.5 44.7624 23.4658 46.4815 25.1849C48.2006 26.9039 49.1663 29.2355 49.1663 31.6667Z" stroke="#A1A1A1" stroke-width="5" stroke-linecap="round" stroke-linejoin="round"/>
</svg>
