<svg width="24" height="24" viewBox="0 0 24 24" fill="none" xmlns="http://www.w3.org/2000/svg">
<path d="M18 7.00006C18.774 7.16006 19.359 7.42906 19.828 7.87606C21 8.99206 21 10.7881 21 14.3801C21 17.9721 21 19.7681 19.828 20.8841C18.656 22.0001 16.771 22.0001 13 22.0001H11C7.229 22.0001 5.343 22.0001 4.172 20.8841C3.001 19.7681 3 17.9721 3 14.3801C3 10.7881 3 8.99206 4.172 7.87606C4.642 7.42906 5.226 7.16006 6 7.00006M12.025 2.00006L12 14.0001M12.025 2.00006C11.8514 1.99784 11.6832 2.06021 11.553 2.17506C10.647 2.94006 9 4.92906 9 4.92906M12.025 2.00006C12.1812 2.00928 12.3297 2.07053 12.447 2.17406C13.353 2.94006 15 4.93006 15 4.93006" stroke="white" stroke-width="1.5" stroke-linecap="round" stroke-linejoin="round"/>
</svg>
