<svg width="147" height="343" viewBox="0 0 147 343" fill="none" xmlns="http://www.w3.org/2000/svg">
<g clip-path="url(#clip0_32128_5270)">
<g opacity="0.8">
<path d="M27.2708 26.6895C22.8497 29.6553 14.4988 40.3326 16.4638 59.3143C14.2532 58.9023 10.0778 59.0671 11.0602 63.0217C12.0427 66.9762 13.5984 68.6239 14.2532 68.9534C14.8265 69.6949 15.9234 71.5239 15.7269 72.908C15.4813 74.6381 16.7094 78.5926 20.6392 77.604C21.8673 81.4759 24.8638 89.3687 27.0252 89.9619V108.004C27.1072 109.652 26.0427 113.442 21.1304 115.419C16.2181 117.396 -9.89881 127.612 -22.3433 132.473C-26.0276 134.45 -33.8381 141.47 -35.6066 153.729C-37.375 165.988 -41.9107 201.018 -43.9575 217.001C-45.1037 228.947 -47.6417 252.888 -48.6241 253.086C-48.7879 270.634 -48.4768 307.461 -45.9224 314.381V351.949L-41.2557 364.554L-29.9574 372.71L-23.0802 371.969C-22.0158 372.216 -20.7714 371.524 -24.3083 366.779L-29.4662 360.353L-29.9574 342.31C-28.3199 348.572 -24.6521 360.501 -23.0802 358.128C-21.5082 355.755 -22.4252 347.253 -23.0802 343.299C-22.7527 341.898 -23.0311 336.625 -26.7644 326.739C-29.7936 323.526 -35.0171 314.579 -31.6767 304.495C-27.5013 291.89 -18.1679 248.143 -18.9047 231.583L-10.5538 192.532L-4.65905 231.583C-2.61224 240.316 -0.0415878 261.786 -6.13274 277.802C-12.224 293.818 -13.4193 328.139 -13.2556 343.299C-11.6181 368.179 -6.62397 420.264 0.253151 429.557C0.0895729 434.664 0.204029 445.919 1.97246 450.071C4.18299 455.261 -1.46606 458.227 -2.2029 479.977C-2.79238 497.377 -1.62978 507.164 -0.974922 509.883C4.42861 527.267 14.3023 563.564 10.569 569.694C10.0778 572.333 9.39004 578.344 10.569 581.31C11.7479 584.276 3.3646 597.544 -0.974922 603.802C-3.67659 605.121 -8.04854 608.596 -3.92221 611.958C0.204029 615.319 14.9901 616.159 21.8673 616.159C24.4875 616.243 29.6778 614.182 29.4814 605.284C29.2357 594.162 30.4638 600.094 30.7094 596.387C30.9059 593.421 29.9726 586.585 29.4814 583.535C30.3823 580.816 31.6428 573.945 29.4814 568.211C26.7796 561.043 40.2884 497.525 32.6744 471.574L30.955 465.147C30.7094 463.829 30.3656 460.303 30.955 456.744C31.5445 453.185 33.002 446.363 33.6568 443.398C33.9024 440.761 34.0498 433.412 32.6744 425.108C31.2989 416.803 33.7389 409.125 35.1305 406.324C37.1775 388.776 41.1726 349.527 40.7797 332.918H44.2183" fill="#CAE1FF"/>
<path d="M61.1389 26.6895C65.5599 29.6553 73.9108 40.3326 71.9459 59.3143C74.1565 58.9023 78.3319 59.0671 77.3495 63.0217C76.367 66.9762 74.8113 68.6239 74.1565 68.9534C73.5832 69.6949 72.4863 71.5239 72.6828 72.908C72.9284 74.6381 71.7003 78.5926 67.7705 77.604C66.5424 81.4759 63.5459 89.3687 61.3845 89.9619V108.004C61.3024 109.652 62.3669 113.442 67.2792 115.419C72.1915 117.396 98.3088 127.612 110.753 132.473C114.437 134.45 122.248 141.47 124.016 153.729C125.785 165.988 130.32 201.018 132.367 217.001C133.513 228.947 136.051 252.888 137.034 253.086C137.198 270.634 136.887 307.461 134.332 314.381V351.949L129.665 364.554L118.367 372.71L111.49 371.969C110.425 372.216 109.181 371.524 112.718 366.779L117.876 360.353L118.367 342.31C116.73 348.572 113.062 360.501 111.49 358.128C109.918 355.755 110.835 347.253 111.49 343.299C111.162 341.898 111.441 336.625 115.174 326.739C118.204 323.526 123.427 314.579 120.086 304.495C115.911 291.89 106.578 248.143 107.315 231.583L98.9636 192.532L93.0688 231.583C91.0219 240.316 88.4513 261.786 94.5425 277.802C100.634 293.818 101.829 328.139 101.665 343.299C100.028 368.179 95.0337 420.264 88.1565 429.557C88.3201 434.664 88.2056 445.919 86.4372 450.071C84.2267 455.261 89.8758 458.227 90.6127 479.977C91.2021 497.377 90.0394 507.164 89.3846 509.883C83.9811 527.267 74.1073 563.564 77.8407 569.694C78.3319 572.333 79.0196 578.344 77.8407 581.31C76.6617 584.276 85.0456 597.544 89.3846 603.802C92.0864 605.121 96.4583 608.596 92.332 611.958C88.2056 615.319 73.4196 616.159 66.5424 616.159C63.9227 616.243 58.7318 614.182 58.9283 605.284C59.1739 594.162 57.9459 600.094 57.7002 596.387C57.5037 593.421 58.4371 586.585 58.9283 583.535C58.0279 580.816 56.7669 573.945 58.9283 568.211C61.6301 561.043 48.1212 497.525 55.7353 471.574L57.4546 465.147C57.7002 463.829 58.0441 460.303 57.4546 456.744C56.8651 453.185 55.4077 446.363 54.7529 443.398C54.5072 440.761 54.3599 433.412 55.7353 425.108C57.1108 416.803 54.6708 409.125 53.2792 406.324C51.2322 388.776 47.237 349.527 47.63 332.918H44.1914" fill="#CAE1FF"/>
<path d="M24.6094 29.3102C30.8507 22.0885 47.4186 11.9781 63.7595 29.3102H24.6094Z" fill="#CAE1FF"/>
<path d="M61.6519 28.1152H26.7099C25.5669 28.1152 24.6563 29.0716 24.7124 30.2133L39.4216 329.892C39.4663 330.802 40.1201 331.566 41.0119 331.752L45.4861 332.683C46.6862 332.932 47.8265 332.053 47.8907 330.829L63.6492 30.2199C63.7092 29.0758 62.7976 28.1152 61.6519 28.1152Z" fill="#CAE1FF"/>
</g>
<g filter="url(#filter0_f_32128_5270)">
<ellipse cx="44.5" cy="516" rx="503.5" ry="213" fill="#F5F7FA"/>
</g>
<path d="M54.4334 230.909C53.8309 229.565 52.2531 228.964 50.9092 229.567C49.5653 230.169 48.9642 231.747 49.5666 233.091C50.1691 234.435 51.7469 235.036 53.0908 234.433C54.4347 233.831 55.0358 232.253 54.4334 230.909ZM94.4987 50.4968L94.4987 49.9968L94.1022 49.9968L94.0119 50.3828L94.4987 50.4968ZM144 50.4963L144 49.9963L142.969 49.9963L142.969 50.4963L142.969 50.9963L144 50.9963L144 50.4963ZM140.906 50.4964L140.906 49.9963L138.844 49.9964L138.844 50.4964L138.844 50.9964L140.906 50.9964L140.906 50.4964ZM136.781 50.4964L136.781 49.9964L134.719 49.9964L134.719 50.4964L134.719 50.9964L136.781 50.9964L136.781 50.4964ZM132.656 50.4964L132.656 49.9964L130.593 49.9965L130.593 50.4965L130.593 50.9965L132.656 50.9964L132.656 50.4964ZM128.531 50.4965L128.531 49.9965L126.468 49.9965L126.468 50.4965L126.468 50.9965L128.531 50.9965L128.531 50.4965ZM124.406 50.4965L124.406 49.9965L122.343 49.9965L122.343 50.4965L122.343 50.9965L124.406 50.9965L124.406 50.4965ZM120.281 50.4966L120.281 49.9966L118.218 49.9966L118.218 50.4966L118.218 50.9966L120.281 50.9966L120.281 50.4966ZM116.156 50.4966L116.156 49.9966L114.093 49.9966L114.093 50.4966L114.093 50.9966L116.156 50.9966L116.156 50.4966ZM112.03 50.4966L112.03 49.9966L109.968 49.9967L109.968 50.4967L109.968 50.9967L112.03 50.9967L112.03 50.4966ZM107.905 50.4967L107.905 49.9967L105.843 49.9967L105.843 50.4967L105.843 50.9967L107.905 50.9967L107.905 50.4967ZM103.78 50.4967L103.78 49.9967L101.718 49.9967L101.718 50.4968L101.718 50.9968L103.78 50.9967L103.78 50.4967ZM99.6551 50.4968L99.6551 49.9968L97.5925 49.9968L97.5925 50.4968L97.5925 50.9968L99.6551 50.9968L99.6551 50.4968ZM95.53 50.4968L95.53 49.9968L94.4987 49.9968L94.4987 50.4968L94.4987 50.9968L95.53 50.9968L95.53 50.4968ZM94.4987 50.4968L94.0119 50.3828L93.7858 51.3483L94.2726 51.4623L94.7595 51.5763L94.9855 50.6108L94.4987 50.4968ZM93.8205 53.3932L93.3337 53.2792L92.8816 55.2101L93.3684 55.324L93.8552 55.438L94.3074 53.5071L93.8205 53.3932ZM92.9163 57.2549L92.4295 57.1409L91.9773 59.0718L92.4642 59.1858L92.951 59.2998L93.4031 57.3689L92.9163 57.2549ZM92.0121 61.1167L91.5252 61.0027L91.0731 62.9336L91.56 63.0476L92.0468 63.1616L92.4989 61.2307L92.0121 61.1167ZM91.1078 64.9785L90.621 64.8645L90.1689 66.7954L90.6557 66.9094L91.1426 67.0234L91.5947 65.0925L91.1078 64.9785ZM90.2036 68.8402L89.7168 68.7263L89.2647 70.6571L89.7515 70.7711L90.2383 70.8851L90.6904 68.9542L90.2036 68.8402ZM89.2994 72.702L88.8125 72.588L88.3604 74.5189L88.8473 74.6329L89.3341 74.7469L89.7862 72.816L89.2994 72.702ZM88.3952 76.5638L87.9083 76.4498L87.4562 78.3807L87.943 78.4947L88.4299 78.6087L88.882 76.6778L88.3952 76.5638ZM87.4909 80.4256L87.0041 80.3116L86.552 82.2424L87.0388 82.3564L87.5256 82.4704L87.9778 80.5396L87.4909 80.4256ZM86.5867 84.2873L86.0999 84.1733L85.6478 86.1042L86.1346 86.2182L86.6214 86.3322L87.0735 84.4013L86.5867 84.2873ZM85.6825 88.1491L85.1956 88.0351L84.7435 89.966L85.2304 90.08L85.7172 90.194L86.1693 88.2631L85.6825 88.1491ZM84.7782 92.0109L84.2914 91.8969L83.8393 93.8278L84.3261 93.9418L84.813 94.0558L85.2651 92.1249L84.7782 92.0109ZM83.874 95.8727L83.3872 95.7587L82.9351 97.6896L83.4219 97.8035L83.9087 97.9175L84.3608 95.9867L83.874 95.8727ZM82.9698 99.7344L82.483 99.6204L82.0308 101.551L82.5177 101.665L83.0045 101.779L83.4566 99.8484L82.9698 99.7344ZM82.0656 103.596L81.5787 103.482L81.1266 105.413L81.6134 105.527L82.1003 105.641L82.5524 103.71L82.0656 103.596ZM81.1613 107.458L80.6745 107.344L80.2224 109.275L80.7092 109.389L81.196 109.503L81.6482 107.572L81.1613 107.458ZM80.2571 111.32L79.7703 111.206L79.3182 113.137L79.805 113.251L80.2918 113.365L80.7439 111.434L80.2571 111.32ZM79.3529 115.182L78.866 115.068L78.4139 116.998L78.9008 117.112L79.3876 117.226L79.8397 115.296L79.3529 115.182ZM78.4487 119.043L77.9618 118.929L77.5097 120.86L77.9965 120.974L78.4834 121.088L78.9355 119.157L78.4487 119.043ZM77.5444 122.905L77.0576 122.791L76.6055 124.722L77.0923 124.836L77.5791 124.95L78.0313 123.019L77.5444 122.905ZM76.6402 126.767L76.1534 126.653L75.7013 128.584L76.1881 128.698L76.6749 128.812L77.127 126.881L76.6402 126.767ZM75.736 130.629L75.2491 130.515L74.797 132.445L75.2839 132.559L75.7707 132.673L76.2228 130.743L75.736 130.629ZM74.8317 134.49L74.3449 134.376L73.8928 136.307L74.3796 136.421L74.8665 136.535L75.3186 134.604L74.8317 134.49ZM73.9275 138.352L73.4407 138.238L72.9886 140.169L73.4754 140.283L73.9622 140.397L74.4143 138.466L73.9275 138.352ZM73.0233 142.214L72.5365 142.1L72.0843 144.031L72.5712 144.145L73.058 144.259L73.5101 142.328L73.0233 142.214ZM72.1191 146.076L71.6322 145.962L71.1801 147.893L71.6669 148.007L72.1538 148.121L72.6059 146.19L72.1191 146.076ZM71.2148 149.937L70.728 149.823L70.2759 151.754L70.7627 151.868L71.2496 151.982L71.7017 150.051L71.2148 149.937ZM70.3106 153.799L69.8238 153.685L69.3717 155.616L69.8585 155.73L70.3453 155.844L70.7974 153.913L70.3106 153.799ZM69.4064 157.661L68.9196 157.547L68.4674 159.478L68.9543 159.592L69.4411 159.706L69.8932 157.775L69.4064 157.661ZM68.5022 161.523L68.0153 161.409L67.5632 163.34L68.05 163.454L68.5369 163.568L68.989 161.637L68.5022 161.523ZM67.5979 165.385L67.1111 165.271L66.659 167.201L67.1458 167.315L67.6326 167.429L68.0848 165.499L67.5979 165.385ZM66.6937 169.246L66.2069 169.132L65.7548 171.063L66.2416 171.177L66.7284 171.291L67.1805 169.36L66.6937 169.246ZM65.7895 173.108L65.3026 172.994L64.8505 174.925L65.3374 175.039L65.8242 175.153L66.2763 173.222L65.7895 173.108ZM64.8852 176.97L64.3984 176.856L63.9463 178.787L64.4331 178.901L64.92 179.015L65.3721 177.084L64.8852 176.97ZM63.981 180.832L63.4942 180.718L63.0421 182.648L63.5289 182.762L64.0157 182.876L64.4679 180.946L63.981 180.832ZM63.0768 184.693L62.59 184.579L62.1378 186.51L62.6247 186.624L63.1115 186.738L63.5636 184.807L63.0768 184.693ZM62.1726 188.555L61.6857 188.441L61.2336 190.372L61.7205 190.486L62.2073 190.6L62.6594 188.669L62.1726 188.555ZM61.2683 192.417L60.7815 192.303L60.3294 194.234L60.8162 194.348L61.3031 194.462L61.7552 192.531L61.2683 192.417ZM60.3641 196.279L59.8773 196.165L59.4252 198.096L59.912 198.21L60.3988 198.324L60.851 196.393L60.3641 196.279ZM59.4599 200.14L58.9731 200.026L58.5209 201.957L59.0078 202.071L59.4946 202.185L59.9467 200.254L59.4599 200.14ZM58.5557 204.002L58.0688 203.888L57.6167 205.819L58.1035 205.933L58.5904 206.047L59.0425 204.116L58.5557 204.002ZM57.6514 207.864L57.1646 207.75L56.7125 209.681L57.1993 209.795L57.6862 209.909L58.1383 207.978L57.6514 207.864ZM56.7472 211.726L56.2604 211.612L55.8083 213.543L56.2951 213.657L56.7819 213.771L57.234 211.84L56.7472 211.726ZM55.843 215.588L55.3562 215.474L54.904 217.404L55.3909 217.518L55.8777 217.632L56.3298 215.701L55.843 215.588ZM54.9388 219.449L54.4519 219.335L53.9998 221.266L54.4866 221.38L54.9735 221.494L55.4256 219.563L54.9388 219.449ZM54.0345 223.311L53.5477 223.197L53.0956 225.128L53.5824 225.242L54.0693 225.356L54.5214 223.425L54.0345 223.311ZM53.1303 227.173L52.6435 227.059L52.1914 228.99L52.6782 229.104L53.165 229.218L53.6171 227.287L53.1303 227.173ZM52.2261 231.035L51.7392 230.921L51.5132 231.886L52 232L52.4868 232.114L52.7129 231.149L52.2261 231.035Z" fill="#535359"/>
<path d="M68.9321 256.407C68.3297 255.063 66.7519 254.462 65.408 255.064C64.064 255.667 63.463 257.245 64.0654 258.589C64.6679 259.933 66.2457 260.534 67.5896 259.931C68.9335 259.329 69.5346 257.751 68.9321 256.407ZM99.737 167.476L99.737 166.976L99.3886 166.976L99.2679 167.303L99.737 167.476ZM149.238 167.476L149.238 166.976L148.207 166.976L148.207 167.476L148.207 167.976L149.238 167.976L149.238 167.476ZM146.145 167.476L146.145 166.976L144.082 166.976L144.082 167.476L144.082 167.976L146.145 167.976L146.145 167.476ZM142.019 167.476L142.019 166.976L139.957 166.976L139.957 167.476L139.957 167.976L142.019 167.976L142.019 167.476ZM137.894 167.476L137.894 166.976L135.832 166.976L135.832 167.476L135.832 167.976L137.894 167.976L137.894 167.476ZM133.769 167.476L133.769 166.976L131.707 166.976L131.707 167.476L131.707 167.976L133.769 167.976L133.769 167.476ZM129.644 167.476L129.644 166.976L127.582 166.976L127.582 167.476L127.582 167.976L129.644 167.976L129.644 167.476ZM125.519 167.476L125.519 166.976L123.456 166.976L123.456 167.476L123.456 167.976L125.519 167.976L125.519 167.476ZM121.394 167.476L121.394 166.976L119.331 166.976L119.331 167.476L119.331 167.976L121.394 167.976L121.394 167.476ZM117.269 167.476L117.269 166.976L115.206 166.976L115.206 167.476L115.206 167.976L117.269 167.976L117.269 167.476ZM113.144 167.476L113.144 166.976L111.081 166.976L111.081 167.476L111.081 167.976L113.144 167.976L113.144 167.476ZM109.018 167.476L109.018 166.976L106.956 166.976L106.956 167.476L106.956 167.976L109.018 167.976L109.018 167.476ZM104.893 167.476L104.893 166.976L102.831 166.976L102.831 167.476L102.831 167.976L104.893 167.976L104.893 167.476ZM100.768 167.476L100.768 166.976L99.737 166.976L99.737 167.476L99.737 167.976L100.768 167.976L100.768 167.476ZM99.737 167.476L99.2679 167.303L98.9217 168.241L99.3907 168.414L99.8598 168.587L100.206 167.65L99.737 167.476ZM98.6983 170.29L98.2292 170.116L97.5368 171.992L98.0058 172.165L98.4749 172.338L99.1673 170.463L98.6983 170.29ZM97.3134 174.04L96.8443 173.867L96.1518 175.743L96.6209 175.916L97.0899 176.089L97.7824 174.214L97.3134 174.04ZM95.9284 177.791L95.4594 177.618L94.7669 179.494L95.236 179.667L95.705 179.84L96.3975 177.965L95.9284 177.791ZM94.5435 181.542L94.0745 181.369L93.382 183.245L93.851 183.418L94.3201 183.591L95.0126 181.715L94.5435 181.542ZM93.1586 185.293L92.6895 185.12L91.9971 186.995L92.4661 187.169L92.9352 187.342L93.6276 185.466L93.1586 185.293ZM91.7737 189.044L91.3046 188.871L90.6121 190.746L91.0812 190.919L91.5502 191.093L92.2427 189.217L91.7737 189.044ZM90.3887 192.795L89.9197 192.622L89.2272 194.497L89.6963 194.67L90.1653 194.844L90.8578 192.968L90.3887 192.795ZM89.0038 196.546L88.5348 196.373L87.8423 198.248L88.3113 198.421L88.7804 198.594L89.4729 196.719L89.0038 196.546ZM87.6189 200.297L87.1498 200.124L86.4574 201.999L86.9264 202.172L87.3955 202.345L88.0879 200.47L87.6189 200.297ZM86.234 204.048L85.7649 203.874L85.0724 205.75L85.5415 205.923L86.0105 206.096L86.703 204.221L86.234 204.048ZM84.849 207.799L84.38 207.625L83.6875 209.501L84.1566 209.674L84.6256 209.847L85.3181 207.972L84.849 207.799ZM83.4641 211.549L82.9951 211.376L82.3026 213.252L82.7716 213.425L83.2407 213.598L83.9332 211.723L83.4641 211.549ZM82.0792 215.3L81.6101 215.127L80.9177 217.003L81.3867 217.176L81.8558 217.349L82.5482 215.473L82.0792 215.3ZM80.6943 219.051L80.2252 218.878L79.5327 220.753L80.0018 220.927L80.4708 221.1L81.1633 219.224L80.6943 219.051ZM79.3093 222.802L78.8403 222.629L78.1478 224.504L78.6169 224.678L79.0859 224.851L79.7784 222.975L79.3093 222.802ZM77.9244 226.553L77.4554 226.38L76.7629 228.255L77.2319 228.428L77.701 228.602L78.3935 226.726L77.9244 226.553ZM76.5395 230.304L76.0704 230.131L75.378 232.006L75.847 232.179L76.3161 232.353L77.0085 230.477L76.5395 230.304ZM75.1546 234.055L74.6855 233.882L73.993 235.757L74.4621 235.93L74.9311 236.103L75.6236 234.228L75.1546 234.055ZM73.7696 237.806L73.3006 237.632L72.6081 239.508L73.0772 239.681L73.5462 239.854L74.2387 237.979L73.7696 237.806ZM72.3847 241.557L71.9157 241.383L71.2232 243.259L71.6922 243.432L72.1613 243.605L72.8538 241.73L72.3847 241.557ZM70.9998 245.307L70.5307 245.134L69.8383 247.01L70.3073 247.183L70.7764 247.356L71.4688 245.481L70.9998 245.307ZM69.6149 249.058L69.1458 248.885L68.4533 250.761L68.9224 250.934L69.3914 251.107L70.0839 249.232L69.6149 249.058ZM68.2299 252.809L67.7609 252.636L67.0684 254.511L67.5375 254.685L68.0065 254.858L68.699 252.982L68.2299 252.809ZM66.845 256.56L66.376 256.387L66.0297 257.325L66.4988 257.498L66.9678 257.671L67.3141 256.733L66.845 256.56Z" fill="#535359"/>
<path d="M20 288.667C21.4728 288.667 22.6667 287.473 22.6667 286C22.6667 284.527 21.4728 283.333 20 283.333C18.5272 283.333 17.3333 284.527 17.3333 286C17.3333 287.473 18.5272 288.667 20 288.667ZM20 286V286.5H20.9922V286V285.5H20V286ZM22.9766 286V286.5H24.9609V286V285.5H22.9766V286ZM26.9453 286V286.5H28.9297V286V285.5H26.9453V286ZM30.9141 286V286.5H32.8984V286V285.5H30.9141V286ZM34.8828 286V286.5H36.8672V286V285.5H34.8828V286ZM38.8516 286V286.5H40.8359V286V285.5H38.8516V286ZM42.8203 286V286.5H44.8047V286V285.5H42.8203V286ZM46.7891 286V286.5H48.7734V286V285.5H46.7891V286ZM50.7578 286V286.5H52.7422V286V285.5H50.7578V286ZM54.7266 286V286.5H56.7109V286V285.5H54.7266V286ZM58.6953 286V286.5H60.6797V286V285.5H58.6953V286ZM62.6641 286V286.5H64.6484V286V285.5H62.6641V286ZM66.6328 286V286.5H68.6172V286V285.5H66.6328V286ZM70.6016 286V286.5H72.5859V286V285.5H70.6016V286ZM74.5703 286V286.5H76.5547V286V285.5H74.5703V286ZM78.5391 286V286.5H80.5234V286V285.5H78.5391V286ZM82.5078 286V286.5H84.4922V286V285.5H82.5078V286ZM86.4766 286V286.5H88.4609V286V285.5H86.4766V286ZM90.4453 286V286.5H92.4297V286V285.5H90.4453V286ZM94.4141 286V286.5H96.3984V286V285.5H94.4141V286ZM98.3828 286V286.5H100.367V286V285.5H98.3828V286ZM102.352 286V286.5H104.336V286V285.5H102.352V286ZM106.32 286V286.5H108.305V286V285.5H106.32V286ZM110.289 286V286.5H112.273V286V285.5H110.289V286ZM114.258 286V286.5H116.242V286V285.5H114.258V286ZM118.227 286V286.5H120.211V286V285.5H118.227V286ZM122.195 286V286.5H124.18V286V285.5H122.195V286ZM126.164 286V286.5H128.148V286V285.5H126.164V286ZM130.133 286V286.5H132.117V286V285.5H130.133V286ZM134.102 286V286.5H136.086V286V285.5H134.102V286ZM138.07 286V286.5H140.055V286V285.5H138.07V286ZM142.039 286V286.5H144.023V286V285.5H142.039V286ZM146.008 286V286.5H147V286V285.5H146.008V286Z" fill="#535359"/>
</g>
<defs>
<filter id="filter0_f_32128_5270" x="-509" y="253" width="1107" height="526" filterUnits="userSpaceOnUse" color-interpolation-filters="sRGB">
<feFlood flood-opacity="0" result="BackgroundImageFix"/>
<feBlend mode="normal" in="SourceGraphic" in2="BackgroundImageFix" result="shape"/>
<feGaussianBlur stdDeviation="25" result="effect1_foregroundBlur_32128_5270"/>
</filter>
<clipPath id="clip0_32128_5270">
<rect width="205" height="343" fill="white" transform="translate(-58)"/>
</clipPath>
</defs>
</svg>
